<svg preserveAspectRatio="none" overflow="visible" style="display: block;" width="35" height="33.6196" viewBox="0 0 35 33.6196" fill="none" xmlns="http://www.w3.org/2000/svg">
<g id="Group">
<path id="Vector" d="M14.7998 24.5738C10.2881 24.0314 7.10936 20.8114 7.10936 16.6424C7.10936 14.9476 7.72461 13.1173 8.75 11.8971C8.30568 10.7786 8.37404 8.40593 8.88671 7.42298C10.2539 7.25351 12.0996 7.96528 13.1934 8.94823C14.4922 8.54151 15.8594 8.33815 17.5342 8.33815C19.209 8.33815 20.5762 8.54151 21.8066 8.91434C22.8662 7.96528 24.7461 7.25351 26.1133 7.42298C26.5918 8.33815 26.6601 10.7108 26.2158 11.8632C27.3096 13.1512 27.8906 14.8799 27.8906 16.6424C27.8906 20.8114 24.7119 23.9637 20.1318 24.5399C21.2939 25.2856 22.0801 26.9125 22.0801 28.7767V32.3018C22.0801 33.3187 22.9346 33.8948 23.96 33.4881C30.1465 31.1494 35 25.0144 35 17.422C35 7.8297 27.1387 8.4518e-08 17.4658 0C7.79296 -8.4518e-08 8.52286e-08 7.8297 0 17.422C-6.68575e-08 24.9466 4.81932 31.1833 11.3135 33.522C12.2363 33.861 13.125 33.2509 13.125 32.3357V29.6241C12.6465 29.8275 12.0313 29.9631 11.4844 29.9631C9.2285 29.9631 7.8955 28.7429 6.93846 26.4719C6.5625 25.5567 6.15236 25.0144 5.36621 24.9127C4.95607 24.8788 4.81932 24.7094 4.81932 24.506C4.81932 24.0992 5.50293 23.7942 6.18654 23.7942C7.17775 23.7942 8.03221 24.4043 8.92089 25.6584C9.6045 26.6414 10.3223 27.082 11.1768 27.082C12.0313 27.082 12.5781 26.7769 13.3642 25.9974C13.9453 25.4211 14.3896 24.9127 14.7998 24.5738Z" fill="black"/>
</g>
</svg>
